<?xml version="1.0" encoding="UTF-8"?>
<!DOCTYPE svg PUBLIC "-//W3C//DTD SVG 1.1//EN" "http://www.w3.org/Graphics/SVG/1.1/DTD/svg11.dtd">
<!-- Creator: CorelDRAW 2021.5 -->
<svg xmlns="http://www.w3.org/2000/svg" xml:space="preserve" width="297mm" height="210mm" version="1.1" style="shape-rendering:geometricPrecision; text-rendering:geometricPrecision; image-rendering:optimizeQuality; fill-rule:evenodd; clip-rule:evenodd"
viewBox="0 0 29700 21000"
 xmlns:xlink="http://www.w3.org/1999/xlink"
 xmlns:xodm="http://www.corel.com/coreldraw/odm/2003">
 <defs>
  <style type="text/css">
   <![CDATA[
    .str0 {stroke:#373435;stroke-width:20;stroke-miterlimit:22.9256}
    .str1 {stroke:#B6B6B8;stroke-width:282.22;stroke-linecap:round;stroke-linejoin:round;stroke-miterlimit:22.9256}
    .fil7 {fill:none}
    .fil4 {fill:#FEFEFE}
    .fil0 {fill:#362A7A}
    .fil6 {fill:#FEFEFE;fill-rule:nonzero}
    .fil5 {fill:#FEFEFE;fill-rule:nonzero}
    .fil10 {fill:#009460;fill-rule:nonzero}
    .fil8 {fill:#CE1126;fill-rule:nonzero}
    .fil9 {fill:#FCD116;fill-rule:nonzero}
    .fil1 {fill:url(#id4)}
    .fil2 {fill:url(#id5)}
    .fil3 {fill:url(#id6)}
   ]]>
  </style>
      <mask id="id0">
  <radialGradient id="id1" gradientUnits="userSpaceOnUse" cx="2675.92" cy="7218.78" r="0" fx="2675.92" fy="7218.78">
   <stop offset="0" style="stop-opacity:1; stop-color:white"/>
   <stop offset="0.839216" style="stop-opacity:0.501961; stop-color:white"/>
   <stop offset="1" style="stop-opacity:0; stop-color:white"/>
  </radialGradient>
       <rect style="fill:url(#id1)" x="2675.92" y="7218.78" width="6576.71" height="6576.7"/>
      </mask>
      <mask id="id2">
  <radialGradient id="id3" gradientUnits="userSpaceOnUse" cx="2675.92" cy="7218.78" r="0" fx="2675.92" fy="7218.78">
   <stop offset="0" style="stop-opacity:1; stop-color:white"/>
   <stop offset="0.839216" style="stop-opacity:0.501961; stop-color:white"/>
   <stop offset="1" style="stop-opacity:0; stop-color:white"/>
  </radialGradient>
       <rect style="fill:url(#id3)" x="2675.92" y="7218.78" width="6576.71" height="6576.7"/>
      </mask>
  <linearGradient id="id4" gradientUnits="userSpaceOnUse" x1="1691.76" y1="10507.13" x2="10126.38" y2="10507.13">
   <stop offset="0" style="stop-opacity:1; stop-color:#F4F4F6"/>
   <stop offset="0.490196" style="stop-opacity:1; stop-color:#F4F4F6"/>
   <stop offset="1" style="stop-opacity:1; stop-color:#B2B3B5"/>
  </linearGradient>
  <linearGradient id="id5" gradientUnits="userSpaceOnUse" x1="3831.89" y1="8003.89" x2="8096.66" y2="13010.37">
   <stop offset="0" style="stop-opacity:1; stop-color:#AEA8CE"/>
   <stop offset="0.2" style="stop-opacity:1; stop-color:#6A609F"/>
   <stop offset="0.380392" style="stop-opacity:1; stop-color:#382B7B"/>
   <stop offset="0.6" style="stop-opacity:1; stop-color:#24194D"/>
   <stop offset="1" style="stop-opacity:1; stop-color:#24194D"/>
  </linearGradient>
  <radialGradient id="id6" gradientUnits="userSpaceOnUse" gradientTransform="matrix(0.926381 1.08749 -1.08749 0.926379 11865 -5713)" cx="5964.28" cy="10507.13" r="2301.85" fx="5964.28" fy="10507.13">
   <stop offset="0" style="stop-opacity:1; stop-color:#3C3188"/>
   <stop offset="0.25098" style="stop-opacity:1; stop-color:#3C3188"/>
   <stop offset="0.509804" style="stop-opacity:1; stop-color:#392C7F"/>
   <stop offset="0.74902" style="stop-opacity:1; stop-color:#3C3188"/>
   <stop offset="0.980392" style="stop-opacity:1; stop-color:#554A97"/>
   <stop offset="1" style="stop-opacity:1; stop-color:#6E63A5"/>
  </radialGradient>
 </defs>
 <g id="Plan_x0020_1">
  <metadata id="CorelCorpID_0Corel-Layer"/>
  <rect class="fil0 str0" x="-0.53" y="7.13" width="29700" height="21000"/>
  <g id="_2133232755840">
   <g>
    <path class="fil1" d="M5909.07 6289.8c2329.14,0 4217.31,1888.16 4217.31,4217.33 0,2329.17 -1888.17,4217.33 -4217.31,4217.33 -2329.14,0 -4217.31,-1888.16 -4217.31,-4217.33 0,-2329.17 1888.17,-4217.33 4217.31,-4217.33z"/>
    <g>
     <path class="fil2" d="M5964.27 7218.78c1816.1,0 3288.36,1472.25 3288.36,3288.35 0,1816.1 -1472.26,3288.35 -3288.36,3288.35 -1816.09,0 -3288.35,-1472.25 -3288.35,-3288.35 0,-1816.1 1472.26,-3288.35 3288.35,-3288.35z"/>
     <path class="fil3" style="mask:url(#id0)" d="M5964.27 7218.78c1816.1,0 3288.36,1472.25 3288.36,3288.35 0,1816.1 -1472.26,3288.35 -3288.36,3288.35 -1816.09,0 -3288.35,-1472.25 -3288.35,-3288.35 0,-1816.1 1472.26,-3288.35 3288.35,-3288.35z"/>
     <path class="fil3" style="mask:url(#id2)" d="M5964.27 7218.78c1816.1,0 3288.36,1472.25 3288.36,3288.35 0,1816.1 -1472.26,3288.35 -3288.36,3288.35 -1816.09,0 -3288.35,-1472.25 -3288.35,-3288.35 0,-1816.1 1472.26,-3288.35 3288.35,-3288.35z"/>
     <path class="fil4" d="M6203.49 10720.66l2855.92 -1326.78c-47.58,-132.27 -103.39,-260.58 -166.82,-384.37l-2928.32 1360.42 -2882.79 -1446.11c-66.13,120.16 -124.96,244.88 -175.91,373.6l2856.29 1432.83 0 3059.11c66.94,4.06 134.44,6.12 202.41,6.12 80.45,0 160.22,-2.89 239.22,-8.57l0 -3066.25z"/>
    </g>
    <path class="fil5" d="M5805.93 8402.8l90.16 0c111.36,0 187.65,-12.33 229.27,-36.6 41.23,-24.66 62.03,-67.05 62.03,-127.16 0,-62.42 -19.26,-105.96 -58.18,-131.39 -38.53,-25.05 -114.05,-37.77 -226.18,-37.77l-97.1 0 0 332.92zm-418.46 991.82l0 -1653.03 453.52 0c186.5,0 316.73,6.17 391.1,18.11 73.98,11.95 137.56,32.75 191.12,62.04 60.88,33.91 107.51,79.37 139.49,136.02 31.98,57.02 47.78,122.53 47.78,197.28 0,94.02 -23.89,168.77 -71.67,224.26 -47.78,55.1 -124.08,97.1 -228.88,126 117.13,8.86 209.23,50.09 275.12,123.3 66.27,73.6 99.41,171.47 99.41,294.39 0,87.85 -18.5,165.3 -55.87,232.35 -36.99,67.04 -90.55,119.06 -159.53,155.67 -56.25,30.05 -126,51.63 -208.45,64.34 -82.85,12.72 -218.1,19.27 -406.13,19.27l-467.01 0zm418.46 -337.54l157.98 0c106.73,0 182.26,-13.49 226.57,-40.08 44.31,-26.97 66.27,-71.67 66.27,-134.09 0,-69.36 -20.42,-117.52 -60.88,-145.26 -40.46,-27.36 -115.59,-41.23 -225.03,-41.23l-164.91 0 0 360.66z"/>
    <path class="fil5" d="M4822.51 10635.99l0 492.45c-61.66,-68.59 -123.31,-118.68 -184.57,-150.67 -61.27,-31.98 -127.16,-48.16 -196.9,-48.16 -129.47,0 -234.28,44.31 -314.42,132.55 -80.15,88.24 -120.22,203.45 -120.22,345.63 0,132.55 40.84,242.37 122.53,329.45 81.69,87.47 185.72,131.01 312.11,131.01 69.74,0 135.63,-15.8 196.9,-47.78 61.26,-31.59 122.91,-82.07 184.57,-151.04l0 492.44c-71.29,34.68 -142.57,60.88 -213.09,78.22 -70.9,17.34 -142.18,25.81 -214.62,25.81 -90.17,0 -173.4,-10.78 -249.69,-31.98 -76.29,-21.57 -146.42,-54.33 -210.38,-97.87 -123.31,-82.84 -217.33,-186.88 -282.06,-312.49 -64.73,-126 -97.1,-267.42 -97.1,-424.63 0,-126.38 20.42,-241.21 61.65,-344.86 40.84,-103.65 102.88,-197.29 185.34,-281.67 78.22,-80.53 166.46,-140.64 264.72,-180.72 98.25,-39.69 207.3,-59.72 327.52,-59.72 72.44,0 143.72,8.47 214.62,25.81 70.52,17.34 141.8,43.55 213.09,78.22z"/>
    <polygon class="fil5" points="7588.36,12229.74 7588.36,10576.71 8043.81,10576.71 8043.81,12229.74 "/>
   </g>
   <path class="fil6" d="M13835.74 8768.32l83.16 0c102.7,0 173.07,-11.37 211.45,-33.76 38.03,-22.74 57.22,-61.83 57.22,-117.27 0,-57.58 -17.77,-97.74 -53.66,-121.19 -35.54,-23.1 -105.2,-34.83 -208.62,-34.83l-89.55 0 0 307.05zm-385.95 914.77l0 -1524.61 418.29 0c172,0 292.12,5.69 360.71,16.7 68.24,11.02 126.88,30.21 176.28,57.22 56.15,31.28 99.15,73.21 128.65,125.45 29.49,52.6 44.06,113.02 44.06,181.96 0,86.72 -22.03,155.66 -66.1,206.84 -44.07,50.82 -114.43,89.55 -211.1,116.21 108.04,8.17 192.98,46.2 253.75,113.72 61.12,67.88 91.69,158.15 91.69,271.52 0,81.02 -17.06,152.46 -51.53,214.29 -34.12,61.84 -83.52,109.82 -147.13,143.58 -51.89,27.72 -116.21,47.62 -192.27,59.35 -76.41,11.73 -201.15,17.77 -374.58,17.77l-430.72 0zm385.95 -311.32l145.7 0c98.45,0 168.1,-12.44 208.97,-36.96 40.87,-24.88 61.13,-66.1 61.13,-123.67 0,-63.97 -18.84,-108.4 -56.15,-133.98 -37.32,-25.24 -106.62,-38.03 -207.55,-38.03l-152.1 0 0 332.64zm2164.66 -1153.58l0 454.18c-56.86,-63.26 -113.73,-109.46 -170.23,-138.96 -56.51,-29.49 -117.28,-44.42 -181.6,-44.42 -119.41,0 -216.08,40.87 -290,122.25 -73.92,81.39 -110.88,187.65 -110.88,318.79 0,122.25 37.67,223.53 113.01,303.85 75.34,80.67 171.3,120.83 287.87,120.83 64.32,0 125.09,-14.57 181.6,-44.07 56.5,-29.14 113.37,-75.69 170.23,-139.31l0 454.19c-65.75,31.98 -131.49,56.15 -196.53,72.14 -65.39,15.99 -131.14,23.81 -197.95,23.81 -83.16,0 -159.93,-9.95 -230.29,-29.5 -70.37,-19.9 -135.05,-50.1 -194.04,-90.26 -113.73,-76.41 -200.44,-172.37 -260.15,-288.22 -59.7,-116.21 -89.55,-246.64 -89.55,-391.64 0,-116.57 18.83,-222.47 56.86,-318.07 37.67,-95.6 94.89,-181.96 170.94,-259.79 72.14,-74.27 153.53,-129.71 244.15,-166.67 90.62,-36.61 191.2,-55.09 302.08,-55.09 66.81,0 132.56,7.82 197.95,23.81 65.04,16 130.78,40.16 196.53,72.15zm245.22 1464.9l0 -1524.61 420.06 0 0 1524.61 -420.06 0zm724.63 -353.97l0 -339.03 707.93 0 0 339.03 -707.93 0zm2645.51 -405.14c0,109.82 -20.26,212.53 -60.42,308.12 -40.16,95.96 -98.79,181.61 -175.91,257.3 -77.83,74.99 -166.68,132.56 -266.54,173.43 -99.87,40.52 -203.64,60.77 -310.97,60.77 -109.1,0 -213.58,-20.25 -313.09,-60.77 -99.51,-40.87 -186.94,-98.44 -262.63,-173.43 -78.54,-75.69 -137.89,-161.7 -178.76,-258.36 -40.52,-96.31 -60.77,-198.66 -60.77,-307.06 0,-109.1 20.25,-211.45 60.77,-307.76 40.87,-95.96 100.22,-181.96 178.76,-257.66 75.69,-74.98 163.12,-132.56 262.63,-173.42 99.51,-40.52 203.99,-60.78 313.09,-60.78 108.04,0 212.52,20.26 312.74,60.78 100.22,40.86 188.36,98.44 264.77,173.42 76.41,74.99 134.69,160.64 175.56,257.3 40.51,96.31 60.77,199.02 60.77,308.12zm-814.55 447.79c115.15,0 210.39,-42.29 285.73,-126.87 75.35,-84.94 113.02,-191.91 113.02,-320.92 0,-127.58 -38.03,-234.2 -114.44,-319.84 -76.41,-85.3 -171.29,-127.94 -284.31,-127.94 -115.14,0 -210.39,42.64 -285.73,127.58 -75.34,84.94 -113.01,191.91 -113.01,320.2 0,130.43 36.96,237.76 111.24,321.63 74.27,84.23 170.23,126.16 287.5,126.16zm1074.7 311.32l0 -1524.61 400.87 0 576.44 783.98c11.02,16 29.14,48.34 54.37,96.67 25.59,47.98 53.31,105.55 83.88,172.36 -8.18,-63.26 -14.22,-119.41 -18.13,-168.81 -3.91,-49.4 -5.69,-93.11 -5.69,-131.13l0 -753.07 398.75 0 0 1524.61 -398.75 0 -576.08 -787.18c-12.08,-15.99 -30.56,-48.33 -55.79,-96.31 -25.59,-48.33 -52.96,-105.2 -82.81,-170.59 8.18,63.97 14.22,120.48 18.13,169.88 3.91,49.4 5.68,93.11 5.68,131.14l0 753.06 -400.87 0zm1816.74 0l0 -1524.61 415.8 0 0 1168.51 516.02 0 0 356.1 -931.82 0zm1145.41 0l0 -1524.61 420.06 0 0 1524.61 -420.06 0zm754.49 0l0 -1524.61 400.87 0 576.44 783.98c11.02,16 29.14,48.34 54.37,96.67 25.59,47.98 53.31,105.55 83.88,172.36 -8.18,-63.26 -14.22,-119.41 -18.13,-168.81 -3.91,-49.4 -5.69,-93.11 -5.69,-131.13l0 -753.07 398.75 0 0 1524.61 -398.75 0 -576.08 -787.18c-12.08,-15.99 -30.56,-48.33 -55.79,-96.31 -25.59,-48.33 -52.96,-105.2 -82.81,-170.59 8.18,63.97 14.22,120.48 18.13,169.88 3.91,49.4 5.68,93.11 5.68,131.14l0 753.06 -400.87 0zm1816.74 0l0 -1524.61 933.95 0 0 334.78 -528.81 0 0 264.4 498.6 0 0 326.25 -498.6 0 0 258.01 528.81 0 0 341.17 -933.95 0zm-11234.51 1997.27l0 -319.85 816.67 0c0.71,10.31 1.43,22.04 1.78,34.47 0.36,12.44 0.36,30.57 0.36,55.09 0,262.27 -69.3,465.56 -207.91,610.2 -138.24,144.64 -333.35,217.14 -584.61,217.14 -123.32,0 -233.49,-18.48 -329.44,-55.8 -96.31,-36.96 -181.96,-93.82 -257.66,-170.23 -72.14,-72.85 -128.29,-158.85 -168.45,-258.72 -39.8,-99.51 -59.7,-203.63 -59.7,-312.74 0,-113.72 19.54,-218.56 58.28,-313.8 38.74,-95.6 97.02,-181.25 173.78,-257.66 76.41,-74.28 164.19,-130.43 262.99,-168.81 99.15,-38.03 205.77,-57.22 320.2,-57.22 149.27,0 281.47,29.5 396.26,88.5 114.79,58.99 211.45,146.77 290,263.34l-360.37 172.71c-43,-58.99 -91.69,-102.7 -145.35,-131.49 -54.02,-28.78 -114.08,-43.36 -180.89,-43.36 -124.39,0 -222.47,41.58 -293.91,124.39 -71.43,83.16 -107.32,196.17 -107.32,340.1 0,145 35.89,259.08 107.32,342.24 71.44,83.52 169.52,125.1 293.91,125.1 105.55,0 193.68,-25.94 264.05,-77.48 70.72,-51.53 111.95,-120.12 123.68,-206.12l-413.67 0zm1063.67 -963.81l413.67 0 0 741.69c0,108.75 2.84,187.29 8.17,234.56 5.69,47.62 14.93,87.42 28.43,119.41 15.64,38.74 43.71,68.59 83.16,89.2 39.45,20.26 87.78,30.56 144.64,30.56 56.87,0 104.84,-10.3 144.29,-30.56 39.09,-20.61 67.17,-50.46 83.52,-89.2 13.5,-31.99 22.74,-71.79 28.43,-119.41 5.33,-47.27 8.17,-125.81 8.17,-234.56l0 -104.13 0 -637.56 413.67 0 0 806.02c0,167.39 -9.95,290.7 -30.21,370.31 -20.25,79.25 -54.01,147.13 -101.99,203.64 -51.89,61.48 -123.32,108.04 -214.3,138.95 -90.98,30.92 -201.15,46.2 -330.86,46.2 -130.79,0 -240.96,-15.28 -331.58,-46.2 -90.62,-30.91 -162.41,-77.47 -215.01,-138.95 -47.27,-56.51 -81.03,-124.39 -101.64,-203.64 -20.26,-79.61 -30.56,-202.92 -30.56,-370.31l0 -158.15 0 -647.87zm1682.04 1524.61l0 -1524.61 420.06 0 0 1524.61 -420.06 0zm754.49 0l0 -1524.61 400.87 0 576.44 783.98c11.02,16 29.14,48.34 54.37,96.67 25.59,47.98 53.31,105.55 83.88,172.36 -8.18,-63.26 -14.22,-119.41 -18.13,-168.81 -3.91,-49.4 -5.69,-93.11 -5.69,-131.13l0 -753.07 398.75 0 0 1524.61 -398.75 0 -576.08 -787.18c-12.08,-15.99 -30.56,-48.33 -55.79,-96.31 -25.59,-48.33 -52.96,-105.2 -82.81,-170.59 8.18,63.97 14.22,120.48 18.13,169.88 3.91,49.4 5.68,93.11 5.68,131.14l0 753.06 -400.87 0zm1816.74 0l0 -1524.61 933.95 0 0 334.78 -528.81 0 0 264.4 498.6 0 0 326.25 -498.6 0 0 258.01 528.81 0 0 341.17 -933.95 0zm1208.67 0l0 -1524.61 933.95 0 0 334.78 -528.81 0 0 264.4 498.6 0 0 326.25 -498.6 0 0 258.01 528.81 0 0 341.17 -933.95 0z"/>
   <line class="fil7 str1" x1="11829.85" y1="7218.78" x2="11829.85" y2= "13795.48" />
   <g>
    <polygon class="fil8" points="22515.11,10713.82 24806.12,10713.82 24806.12,12241.16 22515.11,12241.16 "/>
    <polygon class="fil9" points="23278.78,10713.82 24806.12,10713.82 24806.12,12241.16 23278.78,12241.16 "/>
    <polygon class="fil10" points="24042.45,10713.82 24806.12,10713.82 24806.12,12241.16 24042.45,12241.16 "/>
   </g>
  </g>
 </g>
</svg>
