<?xml version="1.0" encoding="UTF-8"?>
<!DOCTYPE svg PUBLIC "-//W3C//DTD SVG 1.1//EN" "http://www.w3.org/Graphics/SVG/1.1/DTD/svg11.dtd">
<!-- Creator: CorelDRAW 2021.5 -->
<svg xmlns="http://www.w3.org/2000/svg" xml:space="preserve" width="246.515mm" height="84.3466mm" version="1.1" style="shape-rendering:geometricPrecision; text-rendering:geometricPrecision; image-rendering:optimizeQuality; fill-rule:evenodd; clip-rule:evenodd"
viewBox="0 0 23091.82 7901.01"
 xmlns:xlink="http://www.w3.org/1999/xlink"
 xmlns:xodm="http://www.corel.com/coreldraw/odm/2003">
 <defs>
  <style type="text/css">
   <![CDATA[
    .str0 {stroke:#B6B6B8;stroke-width:264.36;stroke-linecap:round;stroke-linejoin:round;stroke-miterlimit:22.9256}
    .fil6 {fill:none}
    .fil3 {fill:#FEFEFE}
    .fil5 {fill:#FEFEFE;fill-rule:nonzero}
    .fil4 {fill:#FEFEFE;fill-rule:nonzero}
    .fil9 {fill:#009460;fill-rule:nonzero}
    .fil7 {fill:#CE1126;fill-rule:nonzero}
    .fil8 {fill:#FCD116;fill-rule:nonzero}
    .fil0 {fill:url(#id4)}
    .fil1 {fill:url(#id5)}
    .fil2 {fill:url(#id6)}
   ]]>
  </style>
      <mask id="id0">
  <radialGradient id="id1" gradientUnits="userSpaceOnUse" cx="921.89" cy="870.2" r="0" fx="921.89" fy="870.2">
   <stop offset="0" style="stop-opacity:1; stop-color:white"/>
   <stop offset="0.839216" style="stop-opacity:0.501961; stop-color:white"/>
   <stop offset="1" style="stop-opacity:0; stop-color:white"/>
  </radialGradient>
       <rect style="fill:url(#id1)" x="921.89" y="870.2" width="6160.61" height="6160.6"/>
      </mask>
      <mask id="id2">
  <radialGradient id="id3" gradientUnits="userSpaceOnUse" cx="921.89" cy="870.2" r="0" fx="921.89" fy="870.2">
   <stop offset="0" style="stop-opacity:1; stop-color:white"/>
   <stop offset="0.839216" style="stop-opacity:0.501961; stop-color:white"/>
   <stop offset="1" style="stop-opacity:0; stop-color:white"/>
  </radialGradient>
       <rect style="fill:url(#id3)" x="921.89" y="870.2" width="6160.61" height="6160.6"/>
      </mask>
  <linearGradient id="id4" gradientUnits="userSpaceOnUse" x1="-0" y1="3950.51" x2="7900.98" y2="3950.51">
   <stop offset="0" style="stop-opacity:1; stop-color:#F4F4F6"/>
   <stop offset="0.490196" style="stop-opacity:1; stop-color:#F4F4F6"/>
   <stop offset="1" style="stop-opacity:1; stop-color:#B2B3B5"/>
  </linearGradient>
  <linearGradient id="id5" gradientUnits="userSpaceOnUse" x1="2004.73" y1="1605.64" x2="5999.67" y2="6295.37">
   <stop offset="0" style="stop-opacity:1; stop-color:#AEA8CE"/>
   <stop offset="0.2" style="stop-opacity:1; stop-color:#6A609F"/>
   <stop offset="0.380392" style="stop-opacity:1; stop-color:#382B7B"/>
   <stop offset="0.6" style="stop-opacity:1; stop-color:#24194D"/>
   <stop offset="1" style="stop-opacity:1; stop-color:#24194D"/>
  </linearGradient>
  <radialGradient id="id6" gradientUnits="userSpaceOnUse" gradientTransform="matrix(0.926381 1.08749 -1.08749 0.926379 4591 -4062)" cx="4002.2" cy="3950.51" r="2156.22" fx="4002.2" fy="3950.51">
   <stop offset="0" style="stop-opacity:1; stop-color:#3C3188"/>
   <stop offset="0.25098" style="stop-opacity:1; stop-color:#3C3188"/>
   <stop offset="0.509804" style="stop-opacity:1; stop-color:#392C7F"/>
   <stop offset="0.74902" style="stop-opacity:1; stop-color:#3C3188"/>
   <stop offset="0.980392" style="stop-opacity:1; stop-color:#554A97"/>
   <stop offset="1" style="stop-opacity:1; stop-color:#6E63A5"/>
  </radialGradient>
 </defs>
 <g id="Plan_x0020_1">
  <metadata id="CorelCorpID_0Corel-Layer"/>
  <g id="_2133232098496">
   <g>
    <path class="fil0" d="M3950.49 0c2181.78,0 3950.49,1768.7 3950.49,3950.51 0,2181.81 -1768.71,3950.51 -3950.49,3950.51 -2181.78,0 -3950.49,-1768.7 -3950.49,-3950.51 0,-2181.81 1768.71,-3950.51 3950.49,-3950.51z"/>
    <g>
     <path class="fil1" d="M4002.2 870.2c1701.2,0 3080.31,1379.1 3080.31,3080.3 0,1701.2 -1379.11,3080.3 -3080.31,3080.3 -1701.19,0 -3080.3,-1379.1 -3080.3,-3080.3 0,-1701.2 1379.11,-3080.3 3080.3,-3080.3z"/>
     <path class="fil2" style="mask:url(#id0)" d="M4002.2 870.2c1701.2,0 3080.31,1379.1 3080.31,3080.3 0,1701.2 -1379.11,3080.3 -3080.31,3080.3 -1701.19,0 -3080.3,-1379.1 -3080.3,-3080.3 0,-1701.2 1379.11,-3080.3 3080.3,-3080.3z"/>
     <path class="fil2" style="mask:url(#id2)" d="M4002.2 870.2c1701.2,0 3080.31,1379.1 3080.31,3080.3 0,1701.2 -1379.11,3080.3 -3080.31,3080.3 -1701.19,0 -3080.3,-1379.1 -3080.3,-3080.3 0,-1701.2 1379.11,-3080.3 3080.3,-3080.3z"/>
     <path class="fil3" d="M4226.28 4150.53l2675.23 -1242.84c-44.57,-123.9 -96.85,-244.09 -156.27,-360.05l-2743.05 1274.35 -2700.4 -1354.62c-61.95,112.56 -117.05,229.39 -164.78,349.96l2675.58 1342.18 0 2865.57c62.7,3.8 125.93,5.73 189.6,5.73 75.36,0 150.08,-2.71 224.08,-8.03l0 -2872.25z"/>
    </g>
    <path class="fil4" d="M3853.87 1979.31l84.46 0c104.31,0 175.78,-11.55 214.76,-34.28 38.62,-23.1 58.11,-62.81 58.11,-119.11 0,-58.47 -18.04,-99.26 -54.5,-123.08 -36.09,-23.47 -106.83,-35.38 -211.87,-35.38l-90.96 0 0 311.86zm-391.98 929.07l0 -1548.45 424.83 0c174.7,0 296.69,5.78 366.36,16.96 69.3,11.19 128.86,30.68 179.03,58.11 57.03,31.76 100.71,74.35 130.66,127.41 29.96,53.41 44.76,114.78 44.76,184.8 0,88.07 -22.38,158.09 -67.14,210.07 -44.76,51.61 -116.23,90.96 -214.4,118.03 109.72,8.3 195.99,46.92 257.71,115.5 62.08,68.94 93.12,160.62 93.12,275.76 0,82.29 -17.33,154.84 -52.34,217.65 -34.65,62.8 -84.82,111.53 -149.44,145.82 -52.69,28.15 -118.03,48.36 -195.26,60.27 -77.61,11.92 -204.3,18.05 -380.43,18.05l-437.46 0zm391.98 -316.18l147.98 0c99.98,0 170.73,-12.64 212.24,-37.54 41.51,-25.26 62.08,-67.14 62.08,-125.61 0,-64.97 -19.13,-110.08 -57.03,-136.07 -37.9,-25.63 -108.28,-38.62 -210.79,-38.62l-154.48 0 0 337.84z"/>
    <path class="fil4" d="M2932.67 4071.21l0 461.29c-57.76,-64.25 -115.51,-111.17 -172.89,-141.14 -57.39,-29.96 -119.11,-45.11 -184.44,-45.11 -121.28,0 -219.46,41.51 -294.53,124.16 -75.08,82.66 -112.61,190.58 -112.61,323.76 0,124.16 38.26,227.04 114.78,308.61 76.52,81.94 173.97,122.72 292.36,122.72 65.33,0 127.05,-14.8 184.44,-44.76 57.38,-29.59 115.13,-76.88 172.89,-141.48l0 461.28c-66.78,32.49 -133.55,57.03 -199.61,73.27 -66.41,16.24 -133.18,24.18 -201.04,24.18 -84.47,0 -162.43,-10.1 -233.89,-29.96 -71.46,-20.21 -137.16,-50.89 -197.07,-91.68 -115.51,-77.6 -203.58,-175.06 -264.21,-292.72 -60.63,-118.03 -90.96,-250.5 -90.96,-397.76 0,-118.38 19.13,-225.95 57.75,-323.04 38.26,-97.09 96.37,-184.81 173.61,-263.85 73.27,-75.44 155.93,-131.74 247.97,-169.29 92.03,-37.18 194.18,-55.94 306.8,-55.94 67.86,0 134.63,7.93 201.04,24.18 66.06,16.24 132.83,40.79 199.61,73.27z"/>
    <polygon class="fil4" points="5523.53,5564.13 5523.53,4015.68 5950.17,4015.68 5950.17,5564.13 "/>
   </g>
   <path class="fil5" d="M11375.65 2321.71l77.9 0c96.2,0 162.12,-10.65 198.07,-31.62 35.62,-21.3 53.6,-57.92 53.6,-109.85 0,-53.94 -16.65,-91.56 -50.27,-113.52 -33.29,-21.64 -98.54,-32.63 -195.42,-32.63l-83.88 0 0 287.62zm-361.53 856.89l0 -1428.15 391.83 0c161.12,0 273.64,5.33 337.89,15.64 63.92,10.32 118.85,28.3 165.13,53.6 52.6,29.3 92.88,68.58 120.51,117.51 27.62,49.27 41.27,105.87 41.27,170.45 0,81.23 -20.64,145.81 -61.92,193.75 -41.28,47.6 -107.19,83.88 -197.74,108.86 101.2,7.65 180.77,43.28 237.7,106.53 57.25,63.59 85.89,148.14 85.89,254.34 0,75.89 -15.98,142.81 -48.27,200.73 -31.96,57.93 -78.24,102.87 -137.82,134.5 -48.61,25.97 -108.86,44.61 -180.11,55.6 -71.58,10.99 -188.42,16.65 -350.88,16.65l-403.47 0zm361.53 -291.62l136.48 0c92.22,0 157.46,-11.65 195.75,-34.62 38.28,-23.31 57.26,-61.92 57.26,-115.85 0,-59.92 -17.65,-101.54 -52.6,-125.5 -34.96,-23.64 -99.87,-35.62 -194.42,-35.62l-142.48 0 0 311.59zm2027.71 -1080.59l0 425.44c-53.26,-59.26 -106.53,-102.53 -159.46,-130.17 -52.93,-27.62 -109.86,-41.61 -170.11,-41.61 -111.86,0 -202.41,38.28 -271.65,114.52 -69.24,76.24 -103.86,175.78 -103.86,298.62 0,114.52 35.29,209.39 105.86,284.63 70.57,75.57 160.46,113.19 269.66,113.19 60.25,0 117.18,-13.65 170.11,-41.28 52.93,-27.3 106.2,-70.9 159.46,-130.5l0 425.45c-61.59,29.96 -123.17,52.6 -184.1,67.58 -61.25,14.98 -122.84,22.3 -185.43,22.3 -77.9,0 -149.81,-9.32 -215.72,-27.63 -65.92,-18.64 -126.51,-46.93 -181.76,-84.55 -106.53,-71.58 -187.76,-161.46 -243.69,-269.98 -55.92,-108.86 -83.88,-231.04 -83.88,-366.86 0,-109.19 17.64,-208.39 53.26,-297.95 35.29,-89.55 88.89,-170.45 160.12,-243.35 67.58,-69.57 143.82,-121.5 228.7,-156.13 84.89,-34.29 179.1,-51.6 282.97,-51.6 62.58,0 124.17,7.33 185.43,22.3 60.93,14.99 122.51,37.62 184.1,67.59zm229.71 1372.22l0 -1428.15 393.48 0 0 1428.15 -393.48 0zm678.78 -331.57l0 -317.58 663.14 0 0 317.58 -663.14 0zm2478.13 -379.51c0,102.87 -18.98,199.08 -56.6,288.63 -37.62,89.89 -92.54,170.12 -164.78,241.02 -72.91,70.25 -156.13,124.17 -249.68,162.46 -93.55,37.96 -190.76,56.93 -291.3,56.93 -102.2,0 -200.07,-18.97 -293.28,-56.93 -93.21,-38.28 -175.11,-92.21 -246.01,-162.46 -73.57,-70.9 -129.17,-151.47 -167.45,-242.01 -37.96,-90.22 -56.93,-186.09 -56.93,-287.63 0,-102.2 18.97,-198.07 56.93,-288.29 38.28,-89.89 93.88,-170.45 167.45,-241.36 70.9,-70.24 152.8,-124.17 246.01,-162.45 93.21,-37.96 191.08,-56.93 293.28,-56.93 101.2,0 199.07,18.98 292.95,56.93 93.88,38.27 176.44,92.21 248.02,162.45 71.58,70.25 126.17,150.48 164.45,241.02 37.95,90.22 56.93,186.43 56.93,288.63zm-763.01 419.46c107.86,0 197.08,-39.61 267.65,-118.84 70.58,-79.57 105.87,-179.77 105.87,-300.62 0,-119.51 -35.62,-219.38 -107.2,-299.6 -71.58,-79.9 -160.45,-119.85 -266.32,-119.85 -107.86,0 -197.08,39.94 -267.65,119.51 -70.57,79.57 -105.86,179.77 -105.86,299.94 0,122.18 34.62,222.72 104.2,301.28 69.57,78.9 159.46,118.18 269.31,118.18zm1006.71 291.62l0 -1428.15 375.51 0 539.97 734.38c10.32,14.99 27.3,45.28 50.93,90.55 23.97,44.94 49.94,98.87 78.57,161.46 -7.66,-59.26 -13.32,-111.86 -16.98,-158.13 -3.66,-46.27 -5.33,-87.22 -5.33,-122.83l0 -705.42 373.52 0 0 1428.15 -373.52 0 -539.63 -737.38c-11.32,-14.98 -28.63,-45.27 -52.26,-90.22 -23.97,-45.27 -49.61,-98.54 -77.57,-159.8 7.66,59.92 13.32,112.86 16.98,159.13 3.66,46.27 5.32,87.22 5.32,122.84l0 705.42 -375.51 0zm1701.8 0l0 -1428.15 389.49 0 0 1094.58 483.37 0 0 333.57 -872.87 0zm1072.94 0l0 -1428.15 393.48 0 0 1428.15 -393.48 0zm706.75 0l0 -1428.15 375.51 0 539.97 734.38c10.32,14.99 27.3,45.28 50.93,90.55 23.97,44.94 49.94,98.87 78.57,161.46 -7.66,-59.26 -13.32,-111.86 -16.98,-158.13 -3.66,-46.27 -5.33,-87.22 -5.33,-122.83l0 -705.42 373.52 0 0 1428.15 -373.52 0 -539.63 -737.38c-11.32,-14.98 -28.63,-45.27 -52.26,-90.22 -23.97,-45.27 -49.61,-98.54 -77.57,-159.8 7.66,59.92 13.32,112.86 16.98,159.13 3.66,46.27 5.32,87.22 5.32,122.84l0 705.42 -375.51 0zm1701.8 0l0 -1428.15 874.86 0 0 313.6 -495.35 0 0 247.67 467.05 0 0 305.61 -467.05 0 0 241.69 495.35 0 0 319.58 -874.86 0zm-10523.72 1870.91l0 -299.61 765 0c0.67,9.66 1.34,20.65 1.67,32.29 0.34,11.65 0.34,28.64 0.34,51.6 0,245.68 -64.92,436.1 -194.76,571.59 -129.49,135.49 -312.26,203.4 -547.62,203.4 -115.52,0 -218.72,-17.31 -308.6,-52.27 -90.22,-34.62 -170.45,-87.88 -241.36,-159.46 -67.58,-68.24 -120.17,-148.8 -157.79,-242.35 -37.28,-93.21 -55.92,-190.75 -55.92,-292.95 0,-106.53 18.3,-204.73 54.59,-293.95 36.29,-89.55 90.88,-169.78 162.79,-241.36 71.58,-69.58 153.8,-122.18 246.35,-158.13 92.88,-35.62 192.75,-53.6 299.94,-53.6 139.83,0 263.66,27.63 371.19,82.9 107.53,55.26 198.07,137.48 271.65,246.68l-337.57 161.78c-40.28,-55.26 -85.89,-96.2 -136.15,-123.17 -50.6,-26.96 -106.86,-40.62 -169.45,-40.62 -116.52,0 -208.39,38.95 -275.31,116.52 -66.91,77.9 -100.53,183.76 -100.53,318.58 0,135.83 33.62,242.69 100.53,320.59 66.92,78.24 158.79,117.19 275.31,117.19 98.87,0 181.43,-24.3 247.34,-72.58 66.25,-48.27 104.87,-112.52 115.85,-193.08l-387.5 0zm996.37 -902.83l387.5 0 0 694.76c0,101.87 2.66,175.44 7.65,219.72 5.33,44.61 13.99,81.89 26.63,111.86 14.65,36.29 40.94,64.25 77.9,83.56 36.95,18.98 82.23,28.63 135.49,28.63 53.27,0 98.21,-9.65 135.16,-28.63 36.62,-19.31 62.92,-47.27 78.24,-83.56 12.65,-29.97 21.3,-67.25 26.63,-111.86 4.99,-44.28 7.65,-117.85 7.65,-219.72l0 -97.54 0 -597.22 387.5 0 0 755.02c0,156.8 -9.32,272.31 -28.3,346.88 -18.97,74.24 -50.59,137.82 -95.54,190.76 -48.61,57.59 -115.52,101.2 -200.74,130.16 -85.22,28.96 -188.42,43.28 -309.93,43.28 -122.52,0 -225.71,-14.31 -310.6,-43.28 -84.89,-28.95 -152.13,-72.57 -201.41,-130.16 -44.28,-52.93 -75.9,-116.52 -95.21,-190.76 -18.98,-74.57 -28.63,-190.08 -28.63,-346.88l0 -148.14 0 -606.88zm1575.62 1428.15l0 -1428.15 393.48 0 0 1428.15 -393.48 0zm706.75 0l0 -1428.15 375.51 0 539.97 734.38c10.32,14.99 27.3,45.28 50.93,90.55 23.97,44.94 49.94,98.87 78.57,161.46 -7.66,-59.26 -13.32,-111.86 -16.98,-158.13 -3.66,-46.27 -5.33,-87.22 -5.33,-122.83l0 -705.42 373.52 0 0 1428.15 -373.52 0 -539.63 -737.38c-11.32,-14.98 -28.63,-45.27 -52.26,-90.22 -23.97,-45.27 -49.61,-98.54 -77.57,-159.8 7.66,59.92 13.32,112.86 16.98,159.13 3.66,46.27 5.32,87.22 5.32,122.84l0 705.42 -375.51 0zm1701.8 0l0 -1428.15 874.86 0 0 313.6 -495.35 0 0 247.67 467.05 0 0 305.61 -467.05 0 0 241.69 495.35 0 0 319.58 -874.86 0zm1132.2 0l0 -1428.15 874.86 0 0 313.6 -495.35 0 0 247.67 467.05 0 0 305.61 -467.05 0 0 241.69 495.35 0 0 319.58 -874.86 0z"/>
   <line class="fil6 str0" x1="9496.67" y1="870.2" x2="9496.67" y2= "7030.81" />
   <g>
    <polygon class="fil7" points="19505.89,4144.12 21651.95,4144.12 21651.95,5574.83 19505.89,5574.83 "/>
    <polygon class="fil8" points="20221.25,4144.12 21651.95,4144.12 21651.95,5574.83 20221.25,5574.83 "/>
    <polygon class="fil9" points="20936.6,4144.12 21651.95,4144.12 21651.95,5574.83 20936.6,5574.83 "/>
   </g>
  </g>
 </g>
</svg>
