<?xml version="1.0" encoding="UTF-8"?>
<!DOCTYPE svg PUBLIC "-//W3C//DTD SVG 1.1//EN" "http://www.w3.org/Graphics/SVG/1.1/DTD/svg11.dtd">
<!-- Creator: CorelDRAW 2021.5 -->
<svg xmlns="http://www.w3.org/2000/svg" xml:space="preserve" width="31.2995mm" height="31.2996mm" version="1.1" style="shape-rendering:geometricPrecision; text-rendering:geometricPrecision; image-rendering:optimizeQuality; fill-rule:evenodd; clip-rule:evenodd"
viewBox="0 0 1031.21 1031.21"
 xmlns:xlink="http://www.w3.org/1999/xlink"
 xmlns:xodm="http://www.corel.com/coreldraw/odm/2003">
 <defs>
  <style type="text/css">
   <![CDATA[
    .fil2 {fill:#362A7A}
    .fil3 {fill:#B0DEF2;fill-rule:nonzero}
    .fil1 {fill:#E9E9EF;fill-rule:nonzero}
    .fil0 {fill:#F4F4F7;fill-rule:nonzero}
   ]]>
  </style>
 </defs>
 <g id="Plan_x0020_1">
  <metadata id="CorelCorpID_0Corel-Layer"/>
  <circle class="fil0" cx="517.46" cy="513.75" r="461.82"/>
  <path class="fil1" d="M59.4 756.72c-66.82,-126.69 -77.78,-275.31 -30.24,-410.35 47.54,-135.04 149.29,-244.37 280.94,-301.85l8.91 20.29c-126.01,55.01 -223.4,159.63 -268.9,288.87 -45.5,129.24 -35.02,271.48 28.93,392.73l-19.65 10.31zm968.54 -185.47l-22.09 -2.41c1.45,-13.15 2.22,-24.03 2.74,-34.3 5.31,-130.61 -41.69,-257.97 -130.66,-354.07 -88.98,-96.1 -212.63,-153.05 -343.77,-158.33l0.91 -22.13c285.33,11.51 507.26,251.22 495.71,535.41 -0.43,10.8 -1.32,22.18 -2.84,35.83zm-510.7 459.97c-6.98,0 -13.95,-0.13 -20.96,-0.42 -102.8,-4 -202.03,-38.79 -284.85,-99.88l13.16 -17.86c153.34,112.72 357.74,127.34 525.55,37.57 75.18,-40.43 138.7,-99.54 184.44,-171.65l18.74 11.87c-94.54,149.65 -259.14,240.37 -436.08,240.36z"/>
  <path class="fil2" d="M396.91 426.58l241.11 0 0 463.67 -241.11 0 0 -463.67zm218.99 441.54l0 -419.41 -196.87 0 0 419.41 196.87 0zm-218.99 -606.61c0,-66.58 53.97,-120.55 120.55,-120.55 66.55,0.07 120.48,54 120.55,120.55 0,66.58 -53.97,120.55 -120.55,120.55 -66.58,0 -120.55,-53.98 -120.55,-120.55zm218.99 0c0,-54.37 -44.07,-98.43 -98.43,-98.43 -54.36,0 -98.43,44.07 -98.43,98.43 0,54.37 44.07,98.43 98.43,98.43 54.37,0 98.43,-44.07 98.43,-98.43zm-358.23 24.11l-16.55 -14.63c16.16,-17.83 34.06,-34.05 53.44,-48.43l13.33 17.55c-18.21,13.51 -35.03,28.76 -50.22,45.51l0 0zm36.96 523.02c-44.57,-33.69 -80.95,-77.11 -106.4,-126.97 -58.48,-115.37 -52.23,-253.12 16.45,-362.67l18.68 11.86c-64.5,102.92 -70.38,232.32 -15.47,340.71 23.94,46.85 58.13,87.64 100.01,119.31l-13.26 17.76zm418.23 18.55l-11.77 -19.02c26.92,-17.34 51.36,-38.41 72.6,-62.59l16.42 14.99c-22.61,25.73 -48.61,48.15 -77.26,66.62zm113.87 -114.99l-18.61 -11.81c100.69,-160.57 52.79,-372.71 -107.03,-473.96l11.76 -18.71c170.12,107.77 221.09,333.58 113.88,504.48l0 0z"/>
  <path class="fil3" d="M615.76 261.51c0,-54.29 -44.01,-98.3 -98.3,-98.3 -54.29,0 -98.3,44.01 -98.3,98.3 0,54.29 44.01,98.3 98.3,98.3 54.29,0 98.3,-44.01 98.3,-98.3zm-196.6 606.48l196.6 0 0 -419.16 -196.6 0 0 419.16z"/>
 </g>
</svg>
